<svg xmlns="http://www.w3.org/2000/svg" width="400" height="150" viewBox="0 0 400 150">
  <defs>
    <style>
      @import url('https://fonts.googleapis.com/css2?family=Segoe+UI:wght@400;600;700&amp;display=swap');
      .bg { fill: #111111; stroke: #30363d; stroke-width: 1; rx: 10; }
      .title { font-family: 'Segoe UI', sans-serif; font-weight: 700; font-size: 18px; fill: #00FFFF; }
      .subtitle { font-family: 'Segoe UI', sans-serif; font-weight: 600; font-size: 13px; fill: #e0e0e0; }
      .text { font-family: 'Segoe UI', sans-serif; font-weight: 400; font-size: 12px; fill: #8b949e; }
      .code { font-family: 'Courier New', monospace; font-size: 11px; fill: #5ab0b2; }
      .btn-bg { fill: #1f2328; stroke: #30363d; stroke-width: 1; rx: 6; }
      .btn-text { font-family: 'Segoe UI', sans-serif; font-weight: 600; font-size: 12px; fill: #e0e0e0; }
      .icon { fill: #00FFFF; }
    </style>
  </defs>
  
  <rect class="bg" x="0.5" y="0.5" width="399" height="149" />
  
  <!-- Cisco/Certificate Icon -->
  <svg x="20" y="20" width="22" height="22" viewBox="0 0 24 24">
    <path class="icon" d="M12 2C6.48 2 2 6.48 2 12s4.48 10 10 10 10-4.48 10-10S17.52 2 12 2zm-1 17.93c-3.95-.49-7-3.85-7-7.93 0-.62.08-1.21.21-1.79L9 15v1c0 1.1.9 2 2 2v1.93zm6.9-2.54c-.26-.81-1-1.39-1.9-1.39h-1v-3c0-.55-.45-1-1-1H8v-2h2c.55 0 1-.45 1-1V7h2c1.1 0 2-.9 2-2v-.41c2.93 1.19 5 4.06 5 7.41 0 2.08-.8 3.97-2.1 5.39z"/>
  </svg>
  
  <!-- Title -->
  <text x="52" y="37" class="title">CYBERSECURITY ANALYST</text>
  
  <!-- Content -->
  <text x="20" y="75" class="subtitle">Junior Cybersecurity Analyst Career Path</text>
  <text x="20" y="95" class="text">Cisco Networking Academy • Jul 2026</text>
  <text x="20" y="115" class="code">ID: ac3b9f5e-3d8f-4d6d-87d0-968a6f122111</text>
  
  <!-- Fake button -->
  <g transform="translate(20, 130)">
    <text x="0" y="0" class="btn-text" style="fill:#5ab0b2;">🔗 Ver Credencial en Credly</text>
  </g>
</svg>