<svg xmlns="http://www.w3.org/2000/svg" width="400" height="150" viewBox="0 0 400 150">
  <defs>
    <style>
      @import url('https://fonts.googleapis.com/css2?family=Segoe+UI:wght@400;600;700&amp;display=swap');
      .bg { fill: #111111; stroke: #30363d; stroke-width: 1; rx: 10; }
      .title { font-family: 'Segoe UI', sans-serif; font-weight: 700; font-size: 18px; fill: #00FFFF; }
      .subtitle { font-family: 'Segoe UI', sans-serif; font-weight: 600; font-size: 13px; fill: #e0e0e0; }
      .text { font-family: 'Segoe UI', sans-serif; font-weight: 400; font-size: 12px; fill: #8b949e; }
      .code { font-family: 'Courier New', monospace; font-size: 11px; fill: #5ab0b2; }
      .btn-bg { fill: #1f2328; stroke: #30363d; stroke-width: 1; rx: 6; }
      .btn-text { font-family: 'Segoe UI', sans-serif; font-weight: 600; font-size: 12px; fill: #e0e0e0; }
      .icon { fill: #00FFFF; }
    </style>
  </defs>
  
  <rect class="bg" x="0.5" y="0.5" width="399" height="149" />
  
  <!-- Custom Certificate Icon -->
  <svg x="20" y="20" width="22" height="22" viewBox="0 0 24 24">
    <path class="icon" d="M16 11c1.66 0 2.99-1.34 2.99-3S17.66 5 16 5c-1.66 0-3 1.34-3 3s1.34 3 3 3zm-8 0c1.66 0 2.99-1.34 2.99-3S9.66 5 8 5C6.34 5 5 6.34 5 8s1.34 3 3 3zm0 2c-2.33 0-7 1.17-7 3.5V19h14v-2.5c0-2.33-4.67-3.5-7-3.5zm8 0c-.29 0-.62.02-.97.05 1.16.84 1.97 1.97 1.97 3.45V19h6v-2.5c0-2.33-4.67-3.5-7-3.5z"/>
  </svg>
  
  <!-- Title -->
  <text x="52" y="37" class="title">CCNA: SRWE</text>
  
  <!-- Content -->
  <text x="20" y="75" class="subtitle">Switching, Routing, and Wireless</text>
  <text x="20" y="95" class="text">Cisco Networking Academy • Jun 2026</text>
  <text x="20" y="115" class="code">ID: e345a376-0da7-4e9a-a44f-edf0bae4c245</text>
  
  <!-- Link button -->
  <g transform="translate(20, 130)">
    <text x="0" y="0" class="btn-text" style="fill:#5ab0b2;">🔗 Ver Credencial en Credly</text>
  </g>
</svg>