<svg xmlns="http://www.w3.org/2000/svg" width="400" height="150" viewBox="0 0 400 150">
  <defs>
    <style>
      @import url('https://fonts.googleapis.com/css2?family=Segoe+UI:wght@400;600;700&amp;display=swap');
      .bg { fill: #111111; stroke: #30363d; stroke-width: 1; rx: 10; }
      .title { font-family: 'Segoe UI', sans-serif; font-weight: 700; font-size: 18px; fill: #00FFFF; }
      .subtitle { font-family: 'Segoe UI', sans-serif; font-weight: 600; font-size: 13px; fill: #e0e0e0; }
      .text { font-family: 'Segoe UI', sans-serif; font-weight: 400; font-size: 12px; fill: #8b949e; }
      .code { font-family: 'Courier New', monospace; font-size: 11px; fill: #5ab0b2; }
      .btn-bg { fill: #1f2328; stroke: #30363d; stroke-width: 1; rx: 6; }
      .btn-text { font-family: 'Segoe UI', sans-serif; font-weight: 600; font-size: 12px; fill: #e0e0e0; }
      .icon { fill: #00FFFF; }
    </style>
  </defs>
  
  <rect class="bg" x="0.5" y="0.5" width="399" height="149" />
  
  <!-- Custom Certificate Icon -->
  <svg x="20" y="20" width="22" height="22" viewBox="0 0 24 24">
    <path class="icon" d="M20 18c1.1 0 1.99-.9 1.99-2L22 6c0-1.1-.9-2-2-2H4c-1.1 0-2 .9-2 2v10c0 1.1.9 2 2 2H0v2h24v-2h-4zM4 6h16v10H4V6z"/>
  </svg>
  
  <!-- Title -->
  <text x="52" y="37" class="title">IT ESSENTIALS</text>
  
  <!-- Content -->
  <text x="20" y="75" class="subtitle">IT Essentials</text>
  <text x="20" y="95" class="text">Cisco Networking Academy • Dic 2025</text>
  <text x="20" y="115" class="code">ID: 910b86b8-7c27-40db-92a6-c1f04ee4f4b6</text>
  
  <!-- Link button -->
  <g transform="translate(20, 130)">
    <text x="0" y="0" class="btn-text" style="fill:#5ab0b2;">🔗 Ver Credencial en Credly</text>
  </g>
</svg>