<svg xmlns="http://www.w3.org/2000/svg" width="1400" height="560" viewBox="0 0 1400 560" role="img" aria-labelledby="title desc">
  <title id="title">Max William Medina Castro - Operating Dossier</title>
  <desc id="desc">Minimal professional GitHub profile cover with system dossier, flat colors, thin motion lines and project index.</desc>
  <defs>
    <pattern id="grid" width="40" height="40" patternUnits="userSpaceOnUse">
      <path d="M40 0H0V40" fill="none" stroke="#E5E7EB" stroke-width="1"/>
    </pattern>
    <filter id="shadow" x="-20%" y="-20%" width="140%" height="140%">
      <feDropShadow dx="0" dy="16" stdDeviation="14" flood-color="#111827" flood-opacity="0.12"/>
    </filter>
  </defs>
  <rect width="1400" height="560" rx="18" fill="#F9FAFB"/>
  <rect width="1400" height="560" rx="18" fill="url(#grid)" opacity="0.9"/>
  <rect x="42" y="42" width="1316" height="476" rx="14" fill="#FFFFFF" stroke="#D1D5DB"/>
  <path d="M42 122 H1358" stroke="#D1D5DB"/>
  <circle cx="78" cy="82" r="7" fill="#EF4444"/>
  <circle cx="102" cy="82" r="7" fill="#F59E0B"/>
  <circle cx="126" cy="82" r="7" fill="#10B981"/>
  <text x="156" y="88" font-family="JetBrains Mono, Consolas, monospace" font-size="14" font-weight="700" fill="#6B7280">profile/readme.md</text>

  <g transform="translate(88 168)">
    <text x="0" y="0" font-family="JetBrains Mono, Consolas, monospace" font-size="16" font-weight="700" fill="#0F766E">WILLIAMMDN / SYSTEMS DOSSIER</text>
    <text x="0" y="66" font-family="Inter, Segoe UI, Arial, sans-serif" font-size="58" font-weight="900" fill="#111827">Max William</text>
    <text x="0" y="124" font-family="Inter, Segoe UI, Arial, sans-serif" font-size="58" font-weight="900" fill="#111827">Medina Castro</text>
    <rect x="0" y="154" width="612" height="46" rx="6" fill="#111827"/>
    <text x="20" y="184" font-family="Inter, Segoe UI, Arial, sans-serif" font-size="21" font-weight="800" fill="#FFFFFF">Systems Engineering · Security · Applied AI</text>
    <text x="0" y="244" font-family="Inter, Segoe UI, Arial, sans-serif" font-size="21" font-weight="600" fill="#374151">Building useful systems for mobility, agriculture, education and secure operations.</text>
  </g>

  <g transform="translate(820 162)" filter="url(#shadow)">
    <rect width="440" height="278" rx="12" fill="#FFFFFF" stroke="#D1D5DB"/>
    <text x="28" y="44" font-family="Inter, Segoe UI, Arial, sans-serif" font-size="19" font-weight="900" fill="#111827">Current Focus</text>
    <g font-family="Inter, Segoe UI, Arial, sans-serif" font-size="14" font-weight="700">
      <rect x="28" y="72" width="384" height="40" rx="6" fill="#F3F4F6"/>
      <text x="48" y="98" fill="#111827">01 · VialCentiva · mobility trust platform</text>
      <rect x="28" y="124" width="384" height="40" rx="6" fill="#ECFDF5"/>
      <text x="48" y="150" fill="#064E3B">02 · Paltodoc · applied computer vision</text>
      <rect x="28" y="176" width="384" height="40" rx="6" fill="#FFFBEB"/>
      <text x="48" y="202" fill="#78350F">03 · Academia Daemon · AI literacy</text>
      <rect x="28" y="228" width="384" height="24" rx="6" fill="#111827"/>
      <rect x="28" y="228" width="160" height="24" rx="6" fill="#0F766E">
        <animate attributeName="width" values="120;270;190;340;120" dur="5.5s" repeatCount="indefinite"/>
      </rect>
      <text x="48" y="246" fill="#FFFFFF">build signal active</text>
    </g>
  </g>

  <g fill="none" stroke="#0F766E" stroke-width="4" stroke-linecap="round" stroke-dasharray="2 14">
    <path d="M708 342 C746 304 780 268 820 238">
      <animate attributeName="stroke-dashoffset" values="0;-48" dur="2.6s" repeatCount="indefinite"/>
    </path>
  </g>

  <g transform="translate(88 472)" font-family="JetBrains Mono, Consolas, monospace" font-size="12" font-weight="700" fill="#6B7280">
    <text x="0" y="0">LOCAL PROBLEMS / SERIOUS ENGINEERING / DOCUMENTED SYSTEMS / PUBLIC VALUE</text>
  </g>
</svg>
