<svg xmlns="http://www.w3.org/2000/svg" width="1400" height="720" viewBox="0 0 1400 720" role="img" aria-labelledby="title desc">
  <title id="title">Max William Medina Castro - Cyber Systems Portfolio</title>
  <desc id="desc">Cinematic GitHub profile hero with animated aurora, command interface, orbiting systems and technology signal paths.</desc>
  <defs>
    <radialGradient id="auroraA" cx="12%" cy="16%" r="78%">
      <stop offset="0" stop-color="#00D9FF" stop-opacity="0.95"/>
      <stop offset="0.38" stop-color="#1D4ED8" stop-opacity="0.44"/>
      <stop offset="1" stop-color="#07111F" stop-opacity="0"/>
    </radialGradient>
    <radialGradient id="auroraB" cx="86%" cy="8%" r="76%">
      <stop offset="0" stop-color="#FFD166" stop-opacity="0.78"/>
      <stop offset="0.3" stop-color="#7C3AED" stop-opacity="0.35"/>
      <stop offset="1" stop-color="#07111F" stop-opacity="0"/>
    </radialGradient>
    <linearGradient id="panel" x1="0" y1="0" x2="1" y2="1">
      <stop offset="0" stop-color="#10213D" stop-opacity="0.96"/>
      <stop offset="1" stop-color="#07111F" stop-opacity="0.96"/>
    </linearGradient>
    <linearGradient id="gold" x1="0" y1="0" x2="1" y2="0">
      <stop offset="0" stop-color="#FFD166"/>
      <stop offset="1" stop-color="#FDE68A"/>
    </linearGradient>
    <pattern id="microgrid" width="42" height="42" patternUnits="userSpaceOnUse">
      <path d="M42 0H0V42" fill="none" stroke="#DDFBFF" stroke-opacity="0.055" stroke-width="1"/>
      <circle cx="0" cy="0" r="1.3" fill="#00D9FF" opacity="0.22"/>
    </pattern>
    <filter id="glow" x="-40%" y="-40%" width="180%" height="180%">
      <feGaussianBlur stdDeviation="5" result="blur"/>
      <feColorMatrix in="blur" type="matrix" values="0 0 0 0 0 0 0 0 0 0.85 0 0 0 0 1 0 0 0 0.7 0"/>
      <feMerge>
        <feMergeNode/>
        <feMergeNode in="SourceGraphic"/>
      </feMerge>
    </filter>
    <filter id="shadow" x="-20%" y="-20%" width="140%" height="140%">
      <feDropShadow dx="0" dy="22" stdDeviation="22" flood-color="#000000" flood-opacity="0.4"/>
    </filter>
  </defs>

  <rect width="1400" height="720" rx="28" fill="#07111F"/>
  <rect width="1400" height="720" rx="28" fill="url(#auroraA)">
    <animate attributeName="opacity" values="0.7;1;0.7" dur="7s" repeatCount="indefinite"/>
  </rect>
  <rect width="1400" height="720" rx="28" fill="url(#auroraB)">
    <animate attributeName="opacity" values="0.35;0.85;0.35" dur="9s" repeatCount="indefinite"/>
  </rect>
  <rect width="1400" height="720" rx="28" fill="url(#microgrid)"/>

  <path d="M0 570 C220 480 402 650 640 545 C920 421 1110 492 1400 390 V720 H0 Z" fill="#00D9FF" opacity="0.09"/>
  <path d="M0 640 C252 552 450 682 705 596 C1008 492 1164 580 1400 512 V720 H0 Z" fill="#FFD166" opacity="0.16"/>

  <g transform="translate(78 92)">
    <text x="0" y="0" font-family="JetBrains Mono, Consolas, monospace" font-size="20" font-weight="900" fill="#FFD166" letter-spacing="5">WILLIAMMDN / PORTFOLIO OS</text>
    <text x="0" y="88" font-family="Inter, Segoe UI, Arial, sans-serif" font-size="72" font-weight="950" fill="#FFFFFF">Max William</text>
    <text x="0" y="162" font-family="Inter, Segoe UI, Arial, sans-serif" font-size="72" font-weight="950" fill="#FFFFFF">Medina Castro</text>
    <rect x="0" y="198" width="638" height="66" rx="12" fill="url(#gold)"/>
    <text x="28" y="241" font-family="Inter, Segoe UI, Arial, sans-serif" font-size="29" font-weight="950" fill="#07111F">Systems Engineering · Cybersecurity · Applied AI</text>
    <text x="0" y="318" font-family="Inter, Segoe UI, Arial, sans-serif" font-size="25" font-weight="750" fill="#DFFAFF">Secure systems, civic technology, AI workflows and field-ready prototypes.</text>
  </g>

  <g transform="translate(88 470)" font-family="Inter, Segoe UI, Arial, sans-serif" filter="url(#shadow)">
    <rect width="610" height="126" rx="18" fill="#07111F" opacity="0.82" stroke="#00D9FF" stroke-opacity="0.35"/>
    <g transform="translate(28 28)">
      <rect width="130" height="34" rx="9" fill="#00D9FF" opacity="0.18"/>
      <text x="65" y="23" text-anchor="middle" font-size="14" font-weight="950" fill="#E6F7FF">SECURITY</text>
    </g>
    <g transform="translate(176 28)">
      <rect width="104" height="34" rx="9" fill="#FFD166" opacity="0.22"/>
      <text x="52" y="23" text-anchor="middle" font-size="14" font-weight="950" fill="#E6F7FF">AI</text>
    </g>
    <g transform="translate(298 28)">
      <rect width="134" height="34" rx="9" fill="#00D9FF" opacity="0.18"/>
      <text x="67" y="23" text-anchor="middle" font-size="14" font-weight="950" fill="#E6F7FF">MOBILITY</text>
    </g>
    <g transform="translate(450 28)">
      <rect width="132" height="34" rx="9" fill="#FFD166" opacity="0.22"/>
      <text x="66" y="23" text-anchor="middle" font-size="14" font-weight="950" fill="#E6F7FF">EDUCATION</text>
    </g>
    <text x="28" y="94" font-size="18" font-weight="800" fill="#BDEFFF">Building useful technology with privacy, evidence and real-world context.</text>
  </g>

  <g transform="translate(842 92)" filter="url(#shadow)">
    <rect width="454" height="424" rx="22" fill="url(#panel)" stroke="#00D9FF" stroke-opacity="0.52"/>
    <rect width="454" height="54" rx="22" fill="#10213D"/>
    <circle cx="30" cy="27" r="7" fill="#FF5F57"/>
    <circle cx="56" cy="27" r="7" fill="#FFD166"/>
    <circle cx="82" cy="27" r="7" fill="#22C55E"/>
    <text x="112" y="34" font-family="JetBrains Mono, Consolas, monospace" font-size="15" font-weight="900" fill="#A9F6FF">command-center.yml</text>
    <text x="28" y="96" font-family="JetBrains Mono, Consolas, monospace" font-size="20" font-weight="800" fill="#00D9FF">profile:</text>
    <text x="54" y="132" font-family="JetBrains Mono, Consolas, monospace" font-size="18" font-weight="800" fill="#FFFFFF">name: Max William Medina</text>
    <text x="54" y="164" font-family="JetBrains Mono, Consolas, monospace" font-size="18" font-weight="800" fill="#FFFFFF">mode: build_secure_systems</text>
    <text x="28" y="214" font-family="JetBrains Mono, Consolas, monospace" font-size="20" font-weight="800" fill="#FFD166">focus:</text>
    <text x="54" y="250" font-family="JetBrains Mono, Consolas, monospace" font-size="18" font-weight="800" fill="#FFFFFF">- cybersecurity</text>
    <text x="54" y="282" font-family="JetBrains Mono, Consolas, monospace" font-size="18" font-weight="800" fill="#FFFFFF">- applied_ai</text>
    <text x="54" y="314" font-family="JetBrains Mono, Consolas, monospace" font-size="18" font-weight="800" fill="#FFFFFF">- civic_technology</text>
    <rect x="28" y="354" width="320" height="18" rx="9" fill="#123151"/>
    <rect x="28" y="354" width="120" height="18" rx="9" fill="#00D9FF">
      <animate attributeName="width" values="120;360;240;390;120" dur="4.8s" repeatCount="indefinite"/>
    </rect>
    <rect x="28" y="386" width="260" height="10" rx="5" fill="#FFD166" opacity="0.85">
      <animate attributeName="width" values="160;280;220;330;160" dur="5.4s" repeatCount="indefinite"/>
    </rect>
  </g>

  <g transform="translate(772 384)" filter="url(#glow)">
    <circle cx="0" cy="0" r="13" fill="#FFD166"/>
    <circle cx="0" cy="0" r="34" fill="none" stroke="#FFD166" stroke-width="3" opacity="0.55">
      <animate attributeName="r" values="28;68;28" dur="3.4s" repeatCount="indefinite"/>
      <animate attributeName="opacity" values="0.65;0;0.65" dur="3.4s" repeatCount="indefinite"/>
    </circle>
  </g>

  <g fill="none" stroke-linecap="round">
    <path d="M772 384 C825 330 830 260 850 222" stroke="#00D9FF" stroke-width="6" stroke-dasharray="3 20" opacity="0.9">
      <animate attributeName="stroke-dashoffset" values="0;-46" dur="2s" repeatCount="indefinite"/>
    </path>
    <path d="M772 384 C680 362 622 330 572 292" stroke="#FFD166" stroke-width="5" stroke-dasharray="2 18" opacity="0.76">
      <animate attributeName="stroke-dashoffset" values="0;-42" dur="2.4s" repeatCount="indefinite"/>
    </path>
  </g>

  <g transform="translate(774 582)" font-family="Inter, Segoe UI, Arial, sans-serif">
    <g transform="translate(0 0)">
      <circle cx="30" cy="30" r="30" fill="#00D9FF" opacity="0.18"/>
      <text x="30" y="37" text-anchor="middle" font-size="20" font-weight="950" fill="#FFFFFF">VC</text>
      <text x="74" y="24" font-size="16" font-weight="950" fill="#FFFFFF">VialCentiva</text>
      <text x="74" y="47" font-size="12" font-weight="750" fill="#BDEFFF">mobility trust</text>
    </g>
    <g transform="translate(210 0)">
      <circle cx="30" cy="30" r="30" fill="#FFD166" opacity="0.2"/>
      <text x="30" y="37" text-anchor="middle" font-size="20" font-weight="950" fill="#FFFFFF">PD</text>
      <text x="74" y="24" font-size="16" font-weight="950" fill="#FFFFFF">Paltodoc</text>
      <text x="74" y="47" font-size="12" font-weight="750" fill="#BDEFFF">computer vision</text>
    </g>
    <g transform="translate(410 0)">
      <circle cx="30" cy="30" r="30" fill="#00D9FF" opacity="0.18"/>
      <text x="30" y="37" text-anchor="middle" font-size="20" font-weight="950" fill="#FFFFFF">AD</text>
      <text x="74" y="24" font-size="16" font-weight="950" fill="#FFFFFF">Daemon</text>
      <text x="74" y="47" font-size="12" font-weight="750" fill="#BDEFFF">AI literacy</text>
    </g>
  </g>
</svg>
