<svg xmlns="http://www.w3.org/2000/svg" width="1280" height="320" viewBox="0 0 1280 320" role="img" aria-labelledby="title desc">
  <title id="title">Hola, soy William Medina</title>
  <desc id="desc">Banner claro del perfil de GitHub de William Medina.</desc>
  <rect width="1280" height="320" rx="28" fill="#F8FAFC"/>
  <path d="M0 248 C150 204 235 302 392 248 C544 196 640 270 792 218 C960 160 1068 210 1280 130 L1280 320 L0 320 Z" fill="#E0F2FE"/>
  <path d="M72 72 L154 34 L138 132 Z" fill="none" stroke="#2563EB" stroke-width="3" opacity="0.5"/>
  <path d="M1088 40 L1194 72 L1110 148 Z" fill="none" stroke="#0F766E" stroke-width="3" opacity="0.55"/>
  <path d="M88 236 C210 160 300 250 420 192 C544 130 640 226 784 162 C918 104 1036 160 1190 92" fill="none" stroke="#0F766E" stroke-width="5" stroke-linecap="round" stroke-dasharray="14 16">
    <animate attributeName="stroke-dashoffset" values="0;-90" dur="7s" repeatCount="indefinite"/>
  </path>
  <circle cx="88" cy="236" r="8" fill="#2563EB"/>
  <circle cx="1190" cy="92" r="8" fill="#0F766E"/>
  <text x="80" y="126" font-family="Inter, Segoe UI, Arial, sans-serif" font-size="56" font-weight="850" fill="#0F172A">Hola, soy William Medina</text>
  <text x="82" y="178" font-family="Inter, Segoe UI, Arial, sans-serif" font-size="25" font-weight="650" fill="#334155">Ingeniería de Sistemas · Ciberseguridad · IA aplicada · Web</text>
  <text x="84" y="222" font-family="JetBrains Mono, Consolas, monospace" font-size="17" font-weight="750" fill="#0F766E">construyendo proyectos reales desde Apurímac, Perú</text>
</svg>
