<svg xmlns="http://www.w3.org/2000/svg" width="1280" height="260" viewBox="0 0 1280 260" role="img" aria-labelledby="title desc">
  <title id="title">Hi, I'm Max William Medina Castro</title>
  <desc id="desc">Minimal animated introduction banner for GitHub profile with strong dark-mode contrast.</desc>
  <rect width="1280" height="260" fill="transparent"/>
  <g fill="none" stroke="#9AA8CF" stroke-width="2.2" opacity="0.95">
    <path d="M96 58 L158 20 L142 92 Z"/>
    <path d="M1012 42 L1096 24 L1042 98 Z"/>
    <path d="M868 36 C930 22 954 12 996 4"/>
  </g>
  <g fill="none" stroke="#5DADEC" stroke-linecap="round" stroke-linejoin="round">
    <path d="M88 176 C190 124 244 210 340 166 C438 120 506 204 612 158 C710 116 788 184 890 144 C988 106 1080 152 1190 104" stroke-width="3" stroke-dasharray="10 12">
      <animate attributeName="stroke-dashoffset" values="0;-88" dur="6s" repeatCount="indefinite"/>
    </path>
  </g>
  <circle cx="116" cy="58" r="5" fill="#9AA8CF">
    <animate attributeName="opacity" values="0.35;1;0.35" dur="2.2s" repeatCount="indefinite"/>
  </circle>
  <circle cx="1190" cy="104" r="5" fill="#35C46B">
    <animate attributeName="opacity" values="1;0.35;1" dur="2.2s" repeatCount="indefinite"/>
  </circle>
  <text x="80" y="132" font-family="Inter, Segoe UI, Arial, sans-serif" font-size="52" font-weight="850" fill="#EAF2FF">Hi, I'm Max William Medina Castro</text>
  <text x="82" y="182" font-family="Inter, Segoe UI, Arial, sans-serif" font-size="24" font-weight="650" fill="#B7C5E4">Systems Engineering · Cybersecurity · Applied AI · Civic Technology</text>
  <text x="84" y="222" font-family="JetBrains Mono, Consolas, monospace" font-size="15" font-weight="750" fill="#35C46B">building useful systems from Apurimac, Peru</text>
</svg>
