<svg xmlns="http://www.w3.org/2000/svg" width="1400" height="580" viewBox="0 0 1400 580" role="img" aria-labelledby="title desc">
  <title id="title">Technology Constellation</title>
  <desc id="desc">Animated constellation of cybersecurity, web, AI, data and IoT skills.</desc>
  <defs>
    <radialGradient id="space" cx="50%" cy="40%" r="80%">
      <stop offset="0" stop-color="#123151"/>
      <stop offset="0.48" stop-color="#07111F"/>
      <stop offset="1" stop-color="#030712"/>
    </radialGradient>
    <filter id="glow" x="-30%" y="-30%" width="160%" height="160%">
      <feGaussianBlur stdDeviation="3" result="blur"/>
      <feMerge>
        <feMergeNode in="blur"/>
        <feMergeNode in="SourceGraphic"/>
      </feMerge>
    </filter>
  </defs>
  <rect width="1400" height="580" rx="22" fill="url(#space)"/>
  <text x="70" y="76" font-family="Inter, Segoe UI, Arial, sans-serif" font-size="34" font-weight="950" fill="#FFFFFF">Technology Constellation</text>
  <text x="70" y="114" font-family="Inter, Segoe UI, Arial, sans-serif" font-size="18" font-weight="760" fill="#BDEFFF">Tools are grouped by mission: defend, build, learn, connect and measure.</text>

  <g fill="none" stroke="#00D9FF" stroke-opacity="0.28" stroke-width="2">
    <path d="M314 244 L538 168 L710 276 L928 154 L1118 248"/>
    <path d="M314 244 L492 390 L710 276 L910 410 L1118 248"/>
    <path d="M538 168 L492 390 L910 410 L928 154"/>
  </g>

  <g font-family="Inter, Segoe UI, Arial, sans-serif" font-weight="950" filter="url(#glow)">
    <g transform="translate(236 190)">
      <circle cx="78" cy="54" r="54" fill="#00D9FF" opacity="0.22"/>
      <circle cx="78" cy="54" r="30" fill="#00D9FF"/>
      <text x="78" y="60" text-anchor="middle" font-size="14" fill="#07111F">KALI</text>
      <text x="78" y="124" text-anchor="middle" font-size="18" fill="#FFFFFF">Security</text>
    </g>
    <g transform="translate(460 114)">
      <circle cx="78" cy="54" r="54" fill="#FFD166" opacity="0.2"/>
      <circle cx="78" cy="54" r="30" fill="#FFD166"/>
      <text x="78" y="60" text-anchor="middle" font-size="14" fill="#07111F">PY</text>
      <text x="78" y="124" text-anchor="middle" font-size="18" fill="#FFFFFF">AI/Data</text>
    </g>
    <g transform="translate(632 222)">
      <circle cx="78" cy="54" r="64" fill="#00D9FF" opacity="0.24"/>
      <circle cx="78" cy="54" r="36" fill="#00D9FF"/>
      <text x="78" y="61" text-anchor="middle" font-size="14" fill="#07111F">JS</text>
      <text x="78" y="134" text-anchor="middle" font-size="18" fill="#FFFFFF">Frontend</text>
    </g>
    <g transform="translate(850 100)">
      <circle cx="78" cy="54" r="54" fill="#FFD166" opacity="0.2"/>
      <circle cx="78" cy="54" r="30" fill="#FFD166"/>
      <text x="78" y="60" text-anchor="middle" font-size="14" fill="#07111F">DB</text>
      <text x="78" y="124" text-anchor="middle" font-size="18" fill="#FFFFFF">Backend</text>
    </g>
    <g transform="translate(1040 194)">
      <circle cx="78" cy="54" r="54" fill="#00D9FF" opacity="0.22"/>
      <circle cx="78" cy="54" r="30" fill="#00D9FF"/>
      <text x="78" y="60" text-anchor="middle" font-size="14" fill="#07111F">IoT</text>
      <text x="78" y="124" text-anchor="middle" font-size="18" fill="#FFFFFF">Hardware</text>
    </g>
    <g transform="translate(414 336)">
      <circle cx="78" cy="54" r="48" fill="#00D9FF" opacity="0.16"/>
      <circle cx="78" cy="54" r="25" fill="#00D9FF"/>
      <text x="78" y="60" text-anchor="middle" font-size="12" fill="#07111F">GIT</text>
      <text x="78" y="116" text-anchor="middle" font-size="16" fill="#FFFFFF">Workflow</text>
    </g>
    <g transform="translate(832 356)">
      <circle cx="78" cy="54" r="48" fill="#FFD166" opacity="0.18"/>
      <circle cx="78" cy="54" r="25" fill="#FFD166"/>
      <text x="78" y="60" text-anchor="middle" font-size="12" fill="#07111F">SQL</text>
      <text x="78" y="116" text-anchor="middle" font-size="16" fill="#FFFFFF">Data</text>
    </g>
  </g>

  <g fill="#FFFFFF">
    <circle cx="126" cy="198" r="2" opacity="0.75"/>
    <circle cx="210" cy="420" r="1.8" opacity="0.7"/>
    <circle cx="1194" cy="144" r="2.2" opacity="0.72"/>
    <circle cx="1240" cy="468" r="1.6" opacity="0.68"/>
    <circle cx="682" cy="92" r="1.8" opacity="0.72"/>
    <circle cx="734" cy="490" r="2" opacity="0.75"/>
  </g>
  <circle cx="710" cy="276" r="88" fill="none" stroke="#00D9FF" stroke-width="3" opacity="0.35">
    <animate attributeName="r" values="82;110;82" dur="4s" repeatCount="indefinite"/>
    <animate attributeName="opacity" values="0.45;0.05;0.45" dur="4s" repeatCount="indefinite"/>
  </circle>
</svg>
